<svg xmlns="http://www.w3.org/2000/svg" xmlns:xlink="http://www.w3.org/1999/xlink" width="500" zoomAndPan="magnify" viewBox="0 0 375 374.999991" height="500" preserveAspectRatio="xMidYMid meet" version="1.0"><defs><clipPath id="e36f202688"><path d="M 67.125 257 L 116 257 L 116 310.671875 L 67.125 310.671875 Z M 67.125 257 " clip-rule="nonzero"/></clipPath><clipPath id="956277ea75"><path d="M 67.125 64.671875 L 116 64.671875 L 116 248 L 67.125 248 Z M 67.125 64.671875 " clip-rule="nonzero"/></clipPath><clipPath id="b18f2e8730"><path d="M 124 262 L 307.875 262 L 307.875 310.671875 L 124 310.671875 Z M 124 262 " clip-rule="nonzero"/></clipPath></defs><rect x="-37.5" width="450" fill="#ffffff" y="-37.499999" height="449.999989" fill-opacity="1"/><rect x="-37.5" width="450" fill="#231f20" y="-37.499999" height="449.999989" fill-opacity="1"/><g clip-path="url(#e36f202688)"><path fill="#ffffff" d="M 71.941406 310.269531 L 115.273438 310.269531 L 115.273438 257.308594 L 67.125 257.308594 L 67.125 305.457031 C 67.125 308.113281 69.28125 310.269531 71.941406 310.269531 Z M 91.199219 276.566406 C 93.855469 276.566406 96.015625 278.730469 96.015625 281.382812 C 96.015625 284.035156 93.855469 286.195312 91.199219 286.195312 C 88.546875 286.195312 86.386719 284.035156 86.386719 281.382812 C 86.386719 278.730469 88.546875 276.566406 91.199219 276.566406 Z M 91.199219 276.566406 " fill-opacity="1" fill-rule="nonzero"/></g><g clip-path="url(#956277ea75)"><path fill="#ffffff" d="M 67.125 247.679688 L 115.273438 247.679688 L 115.273438 233.234375 L 91.367188 233.234375 C 88.800781 233.234375 86.5625 231.300781 86.394531 228.742188 C 86.214844 225.9375 88.433594 223.605469 91.199219 223.605469 L 115.273438 223.605469 L 115.273438 211.566406 L 100.996094 211.566406 C 98.429688 211.566406 96.191406 209.632812 96.027344 207.074219 C 95.84375 204.269531 98.0625 201.9375 100.828125 201.9375 L 115.273438 201.9375 L 115.273438 189.902344 L 91.363281 189.902344 C 88.800781 189.902344 86.5625 187.964844 86.394531 185.40625 C 86.214844 182.601562 88.433594 180.273438 91.199219 180.273438 L 115.273438 180.273438 L 115.273438 168.234375 L 100.996094 168.234375 C 98.429688 168.234375 96.191406 166.300781 96.023438 163.742188 C 95.84375 160.9375 98.066406 158.605469 100.828125 158.605469 L 115.273438 158.605469 L 115.273438 146.570312 L 91.363281 146.570312 C 88.800781 146.570312 86.5625 144.632812 86.394531 142.074219 C 86.214844 139.269531 88.433594 136.9375 91.199219 136.9375 L 115.273438 136.9375 L 115.273438 124.902344 L 100.996094 124.902344 C 98.429688 124.902344 96.191406 122.96875 96.023438 120.40625 C 95.84375 117.605469 98.066406 115.273438 100.828125 115.273438 L 115.273438 115.273438 L 115.273438 103.234375 L 91.363281 103.234375 C 88.800781 103.234375 86.5625 101.300781 86.394531 98.742188 C 86.214844 95.9375 88.433594 93.605469 91.199219 93.605469 L 115.273438 93.605469 L 115.273438 69.53125 C 115.273438 66.875 113.117188 64.71875 110.460938 64.71875 L 71.941406 64.71875 C 69.28125 64.71875 67.125 66.875 67.125 69.53125 Z M 67.125 247.679688 " fill-opacity="1" fill-rule="nonzero"/></g><g clip-path="url(#b18f2e8730)"><path fill="#ffffff" d="M 293.421875 262.125 L 293.421875 290.847656 C 293.421875 293.410156 291.484375 295.648438 288.925781 295.816406 C 286.121094 295.996094 283.792969 293.777344 283.792969 291.011719 L 283.792969 262.125 L 262.125 262.125 L 262.125 290.847656 C 262.125 293.410156 260.191406 295.648438 257.628906 295.816406 C 254.828125 295.996094 252.496094 293.777344 252.496094 291.011719 L 252.496094 262.125 L 233.234375 262.125 L 233.234375 290.847656 C 233.234375 293.410156 231.300781 295.648438 228.742188 295.816406 C 225.9375 295.996094 223.605469 293.777344 223.605469 291.011719 L 223.605469 262.125 L 204.347656 262.125 L 204.347656 290.847656 C 204.347656 293.410156 202.414062 295.648438 199.851562 295.816406 C 197.050781 295.996094 194.71875 293.777344 194.71875 291.011719 L 194.71875 262.125 L 175.457031 262.125 L 175.457031 290.847656 C 175.457031 293.410156 173.523438 295.648438 170.964844 295.816406 C 168.160156 295.996094 165.828125 293.777344 165.828125 291.011719 L 165.828125 262.125 L 144.164062 262.125 L 144.164062 290.847656 C 144.164062 293.410156 142.226562 295.648438 139.667969 295.816406 C 136.863281 295.996094 134.535156 293.777344 134.535156 291.011719 L 134.535156 262.125 L 124.902344 262.125 L 124.902344 310.269531 L 303.050781 310.269531 C 305.710938 310.269531 307.863281 308.113281 307.863281 305.457031 L 307.863281 266.9375 C 307.863281 264.277344 305.710938 262.125 303.050781 262.125 Z M 293.421875 262.125 " fill-opacity="1" fill-rule="nonzero"/></g></svg>